<svg width="42" height="39" viewBox="0 0 42 39" fill="none" xmlns="http://www.w3.org/2000/svg">
<path d="M35.7881 6.69231C36.7476 6.69231 37.5254 5.89589 37.5254 4.91346C37.5254 3.93103 36.7476 3.13462 35.7881 3.13462C34.8287 3.13462 34.0508 3.93103 34.0508 4.91346C34.0508 5.89589 34.8287 6.69231 35.7881 6.69231Z" stroke="#4C241D" stroke-width="1.7939" stroke-linecap="round" stroke-linejoin="round"/>
<path d="M14.9407 31.5962C23.1922 31.5962 29.8814 24.747 29.8814 16.2981C29.8814 7.84918 23.1922 1 14.9407 1C6.68917 1 0 7.84918 0 16.2981C0 24.747 6.68917 31.5962 14.9407 31.5962Z" fill="#E5EFEF"/>
<path d="M8.22571 1.47175L5.67259 4.08594" stroke="#4C241D" stroke-width="1.7939" stroke-linecap="round" stroke-linejoin="round"/>
<path d="M5.67259 1.47175L8.22571 4.08594" stroke="#4C241D" stroke-width="1.7939" stroke-linecap="round" stroke-linejoin="round"/>
<path d="M4.16949 7.40385C4.55328 7.40385 4.86441 7.08528 4.86441 6.69231C4.86441 6.29934 4.55328 5.98077 4.16949 5.98077C3.7857 5.98077 3.47458 6.29934 3.47458 6.69231C3.47458 7.08528 3.7857 7.40385 4.16949 7.40385Z" fill="#4C241D"/>
<path d="M3.47457 13.8077H41V38H3.47457V13.8077Z" fill="#6B4F5B" stroke="#4C241D" stroke-width="1.7939" stroke-linecap="round" stroke-linejoin="round"/>
<path d="M22.2373 37.0643V13.6654C22.2373 13.6654 27.6298 8.04921 37.5164 9.92127V33.3202C37.5164 33.3202 28.5284 32.3838 22.2373 37.0643Z" fill="white" stroke="#4C241D" stroke-width="1.7939" stroke-linecap="round" stroke-linejoin="round"/>
<path d="M25.7119 16.9975C28.0845 15.8496 30.6735 15.2466 33.2976 15.2308L25.7119 16.9975Z" fill="white"/>
<path d="M25.7119 16.9975C28.0845 15.8496 30.6735 15.2466 33.2976 15.2308" stroke="#B5A19C" stroke-width="1.7939" stroke-linecap="round" stroke-linejoin="round"/>
<path d="M25.7119 19.8437C28.0845 18.6958 30.6735 18.0928 33.2976 18.0769L25.7119 19.8437Z" fill="white"/>
<path d="M25.7119 19.8437C28.0845 18.6958 30.6735 18.0928 33.2976 18.0769" stroke="#B5A19C" stroke-width="1.7939" stroke-linecap="round" stroke-linejoin="round"/>
<path d="M25.7119 22.6898C28.0845 21.5419 30.6735 20.939 33.2976 20.9231L25.7119 22.6898Z" fill="white"/>
<path d="M25.7119 22.6898C28.0845 21.5419 30.6735 20.939 33.2976 20.9231" stroke="#B5A19C" stroke-width="1.7939" stroke-linecap="round" stroke-linejoin="round"/>
<path d="M22.2373 37.0643V13.6654C22.2373 13.6654 16.8413 8.04921 6.94915 9.92127V33.3202C6.94915 33.3202 15.942 32.3838 22.2373 37.0643Z" fill="white" stroke="#4C241D" stroke-width="1.7939" stroke-linecap="round" stroke-linejoin="round"/>
<path d="M19.4576 5.98077L17.3729 3.84615" stroke="#FFCE56" stroke-width="1.7939" stroke-linecap="round" stroke-linejoin="round"/>
<path d="M25.0169 5.98077L27.1017 3.84615" stroke="#FFCE56" stroke-width="1.7939" stroke-linecap="round" stroke-linejoin="round"/>
<path d="M22.2373 5.98077V3.13462" stroke="#FFCE56" stroke-width="1.7939" stroke-linecap="round" stroke-linejoin="round"/>
<path d="M18.7043 16.9975C16.3318 15.8494 13.7428 15.2464 11.1186 15.2308L18.7043 16.9975Z" fill="white"/>
<path d="M18.7043 16.9975C16.3318 15.8494 13.7428 15.2464 11.1186 15.2308" stroke="#B5A19C" stroke-width="1.7939" stroke-linecap="round" stroke-linejoin="round"/>
<path d="M18.7043 19.8437C16.3318 18.6956 13.7428 18.0926 11.1186 18.0769L18.7043 19.8437Z" fill="white"/>
<path d="M18.7043 19.8437C16.3318 18.6956 13.7428 18.0926 11.1186 18.0769" stroke="#B5A19C" stroke-width="1.7939" stroke-linecap="round" stroke-linejoin="round"/>
<path d="M18.7043 22.6898C16.3318 21.5417 13.7428 20.9387 11.1186 20.9231L18.7043 22.6898Z" fill="white"/>
<path d="M18.7043 22.6898C16.3318 21.5417 13.7428 20.9387 11.1186 20.9231" stroke="#B5A19C" stroke-width="1.7939" stroke-linecap="round" stroke-linejoin="round"/>
</svg>
