<svg width="41" height="39" viewBox="0 0 41 39" fill="none" xmlns="http://www.w3.org/2000/svg">
<path d="M34.5138 6.28798C35.509 6.28798 36.3157 5.48127 36.3157 4.48616C36.3157 3.49104 35.509 2.68434 34.5138 2.68434C33.5187 2.68434 32.712 3.49104 32.712 4.48616C32.712 5.48127 33.5187 6.28798 34.5138 6.28798Z" stroke="black" stroke-width="1.96" stroke-linecap="round" stroke-linejoin="round"/>
<path d="M5.92762 1L3.27966 3.64795" stroke="black" stroke-width="1.96" stroke-linecap="round" stroke-linejoin="round"/>
<path d="M3.27966 1L5.92762 3.64795" stroke="black" stroke-width="1.96" stroke-linecap="round" stroke-linejoin="round"/>
<path d="M1.72073 7.0087C2.11877 7.0087 2.44146 6.68602 2.44146 6.28798C2.44146 5.88993 2.11877 5.56725 1.72073 5.56725C1.32268 5.56725 1 5.88993 1 6.28798C1 6.68602 1.32268 7.0087 1.72073 7.0087Z" fill="black"/>
<path d="M36.5773 13.4953H39.9193V38H1V13.4953H4.60364" stroke="black" stroke-width="1.96" stroke-linecap="round" stroke-linejoin="round"/>
<path d="M20.4597 37.0522V13.3511C20.4597 13.3511 26.0525 7.66241 36.3063 9.55864V33.2598C36.3063 33.2598 26.9844 32.3113 20.4597 37.0522Z" stroke="black" stroke-width="1.96" stroke-linecap="round" stroke-linejoin="round"/>
<path d="M24.0633 16.7263C26.524 15.5636 29.2092 14.9528 31.9308 14.9367" stroke="black" stroke-width="1.96" stroke-linecap="round" stroke-linejoin="round"/>
<path d="M24.0633 19.6092C26.524 18.4465 29.2092 17.8357 31.9308 17.8196" stroke="black" stroke-width="1.96" stroke-linecap="round" stroke-linejoin="round"/>
<path d="M24.0633 22.4921C26.524 21.3294 29.2092 20.7186 31.9308 20.7025" stroke="black" stroke-width="1.96" stroke-linecap="round" stroke-linejoin="round"/>
<path d="M20.4596 37.0522V13.3511C20.4596 13.3511 14.8632 7.66241 4.60364 9.55864V33.2598C4.60364 33.2598 13.9306 32.3113 20.4596 37.0522Z" stroke="black" stroke-width="1.96" stroke-linecap="round" stroke-linejoin="round"/>
<path d="M17.5767 5.56725L15.4146 3.40507" stroke="black" stroke-width="1.96" stroke-linecap="round" stroke-linejoin="round"/>
<path d="M23.3426 5.56725L25.5048 3.40507" stroke="black" stroke-width="1.96" stroke-linecap="round" stroke-linejoin="round"/>
<path d="M20.4597 5.56725V2.68434" stroke="black" stroke-width="1.96" stroke-linecap="round" stroke-linejoin="round"/>
<path d="M16.7955 16.7263C14.3348 15.5633 11.6496 14.9526 8.92801 14.9367" stroke="black" stroke-width="1.96" stroke-linecap="round" stroke-linejoin="round"/>
<path d="M16.7955 19.6092C14.3348 18.4463 11.6496 17.8355 8.92801 17.8196" stroke="black" stroke-width="1.96" stroke-linecap="round" stroke-linejoin="round"/>
<path d="M16.7955 22.4921C14.3348 21.3292 11.6496 20.7184 8.92801 20.7025" stroke="black" stroke-width="1.96" stroke-linecap="round" stroke-linejoin="round"/>
</svg>
