<svg width="53" height="50" viewBox="0 0 53 50" fill="none" xmlns="http://www.w3.org/2000/svg">
<path d="M26.46 49.5058C43.057 49.5058 44.3845 38.4236 44.3845 24.7529C44.3845 11.0823 36.3594 0 26.46 0C16.5606 0 8.53548 11.0823 8.53548 24.7529C8.53548 38.4236 9.86297 49.5058 26.46 49.5058Z" fill="#595959"/>
<mask id="mask0_2_97" style="mask-type:alpha" maskUnits="userSpaceOnUse" x="8" y="0" width="37" height="50">
<path d="M26.46 49.5058C43.057 49.5058 44.3845 38.4236 44.3845 24.7529C44.3845 11.0823 36.3594 0 26.46 0C16.5606 0 8.53548 11.0823 8.53548 24.7529C8.53548 38.4236 9.86297 49.5058 26.46 49.5058Z" fill="white"/>
</mask>
<g mask="url(#mask0_2_97)">
<path d="M26.46 81.0871C37.3022 81.0871 46.0916 66.9477 46.0916 49.5058C46.0916 32.0639 37.3022 17.9245 26.46 17.9245C15.6178 17.9245 6.82838 32.0639 6.82838 49.5058C6.82838 66.9477 15.6178 81.0871 26.46 81.0871Z" fill="#ECECEC"/>
</g>
<path d="M31.5813 18.7781C34.8811 18.7781 37.5561 16.103 37.5561 12.8032C37.5561 9.50341 34.8811 6.82838 31.5813 6.82838C28.2815 6.82838 25.6065 9.50341 25.6065 12.8032C25.6065 16.103 28.2815 18.7781 31.5813 18.7781Z" fill="white"/>
<path d="M21.3387 18.7781C24.6385 18.7781 27.3135 16.103 27.3135 12.8032C27.3135 9.50341 24.6385 6.82838 21.3387 6.82838C18.0389 6.82838 15.3639 9.50341 15.3639 12.8032C15.3639 16.103 18.0389 18.7781 21.3387 18.7781Z" fill="white"/>
<path d="M29.8742 14.5103C30.817 14.5103 31.5813 13.746 31.5813 12.8032C31.5813 11.8604 30.817 11.0961 29.8742 11.0961C28.9314 11.0961 28.1671 11.8604 28.1671 12.8032C28.1671 13.746 28.9314 14.5103 29.8742 14.5103Z" fill="#595959"/>
<path d="M23.0458 14.5103C23.9886 14.5103 24.7529 13.746 24.7529 12.8032C24.7529 11.8604 23.9886 11.0961 23.0458 11.0961C22.103 11.0961 21.3387 11.8604 21.3387 12.8032C21.3387 13.746 22.103 14.5103 23.0458 14.5103Z" fill="#595959"/>
<path fill-rule="evenodd" clip-rule="evenodd" d="M26.46 22.1923L31.5813 15.3639H21.3387L26.46 22.1923Z" fill="#FFAF40"/>
<path fill-rule="evenodd" clip-rule="evenodd" d="M10.2426 20.4852V28.1671H0L10.2426 20.4852Z" fill="#595959"/>
<path fill-rule="evenodd" clip-rule="evenodd" d="M42.6774 20.4852V28.1671H52.92L42.6774 20.4852Z" fill="#595959"/>
</svg>
