<svg width="53" height="62" viewBox="0 0 53 62" fill="none" xmlns="http://www.w3.org/2000/svg">
<path d="M26.6935 18.4801C30.6626 18.4801 33.8802 14.3432 33.8802 9.24007C33.8802 4.13692 30.6626 0 26.6935 0C22.7244 0 19.5068 4.13692 19.5068 9.24007C19.5068 14.3432 22.7244 18.4801 26.6935 18.4801Z" fill="#80D25B"/>
<path fill-rule="evenodd" clip-rule="evenodd" d="M14.6836 45.1737C14.6836 45.1737 11.43 55.3185 15.0745 59.323C18.7189 63.3275 21.3557 62.8482 21.3557 53.1217C21.3557 43.3951 14.6836 45.1737 14.6836 45.1737V45.1737Z" fill="#80D25B"/>
<path fill-rule="evenodd" clip-rule="evenodd" d="M38.4981 45.1737C38.4981 45.1737 41.7517 55.3185 38.1073 59.323C34.4628 63.3275 31.826 62.8482 31.826 53.1217C31.826 43.3951 38.4981 45.1737 38.4981 45.1737V45.1737Z" fill="#80D25B"/>
<path fill-rule="evenodd" clip-rule="evenodd" d="M15.0128 19.7346C15.0128 19.7346 8.16844 13.7414 4.2011 14.4283C0.23377 15.1151 0 20.7516 0 22.5861C0 24.4206 1.8369 36.258 3.88829 35.4169C5.93968 34.5758 7.94768 26.6518 7.94768 26.6518C7.94768 26.6518 9.90846 28.9817 12.9455 29.2223" fill="#80D25B"/>
<path fill-rule="evenodd" clip-rule="evenodd" d="M37.9872 19.7346C37.9872 19.7346 44.8316 13.7414 48.7989 14.4283C52.7662 15.1151 53 20.7516 53 22.5861C53 24.4206 51.1631 36.258 49.1117 35.4169C47.0603 34.5758 45.0523 26.6518 45.0523 26.6518C45.0523 26.6518 43.0915 28.9817 40.0545 29.2223" fill="#80D25B"/>
<path fill-rule="evenodd" clip-rule="evenodd" d="M26.6935 52.3604C35.7658 52.3604 43.1203 43.6269 43.1203 32.8536C43.1203 22.0802 41.7665 15.4001 26.6935 15.4001C11.6205 15.4001 10.2667 22.0802 10.2667 32.8536C10.2667 43.6269 17.6212 52.3604 26.6935 52.3604Z" fill="#BD7575" stroke="#595959" stroke-width="2.09461" stroke-linecap="round"/>
<path fill-rule="evenodd" clip-rule="evenodd" d="M26.6935 20.5335L33.8063 24.6402V32.8536L26.6935 36.9603L19.5807 32.8536V24.6402L26.6935 20.5335Z" fill="#BD7575" stroke="#595959" stroke-width="2.09461" stroke-linecap="round"/>
<path d="M24.6402 6.16004C23.5061 6.16004 22.5868 7.07936 22.5868 8.21339" stroke="#595959" stroke-width="2.09461" stroke-linecap="round"/>
<path d="M28.7469 6.16004C29.8809 6.16004 30.8002 7.07936 30.8002 8.21339" stroke="#595959" stroke-width="2.09461" stroke-linecap="round"/>
<path d="M26.8162 37.1534V51.7573M26.7105 20.2734V15.4001M19.7266 24.6444L12.0502 21.6342M19.6356 33.0111L11.0531 37.8716" stroke="#595959" stroke-width="2.09461" stroke-linecap="round"/>
<path d="M33.6101 24.6444L41.2865 21.6342" stroke="#595959" stroke-width="2.09461" stroke-linecap="round"/>
<path d="M33.6396 33.0111L42.222 37.8716" stroke="#595959" stroke-width="2.09461" stroke-linecap="round"/>
</svg>
